<svg xmlns="http://www.w3.org/2000/svg" width="1024" height="1024" viewBox="0 0 1024 1024" role="img" aria-label="Actual logo">
  <title>Actual Logo</title>
  <path fill="#111111" d="M221 662c79-64 147-132 205-201 66-80 140-121 222-125 17-2 31-17 32-33-1-40 18-70 53-85 41-17 92 0 114 38 16 28 15 64-3 90l145 82c16 9 15 32-2 40l-169 79c43 148-29 274-198 283-68 2-142-3-223-15-11-2-17-15-9-24l67-73-79-1c-11 0-18-11-13-20l76-127 233 2c73-1 123-55 113-133-9-68-40-126-10-162 20-24 53-26 78-11l134 78-118-88c-41-31-89-55-141-59-69-2-126 25-172 79-62 72-132 141-210 207-7 6-18 4-22-4-4-8-2-17 6-23z"/>
  <path fill="#111111" d="M422 758h42l-48 143c-2 8-9 13-17 13h-76c-15 0-20-20-7-28l30-19-31-17c-12-7-10-26 3-30l58-18z"/>
  <path fill="#111111" d="M525 758h47l119 132c6 7 4 19-5 23l-29 13 28 10c12 4 14 21 3 28h-98c-6 0-12-3-16-9l-94-154 45-43z"/>
  <circle cx="582" cy="360" r="17" fill="#FFFFFF"/>
  <path d="M341 688c144-13 258-67 305-187" stroke="#FFFFFF" stroke-width="18" stroke-linecap="round" fill="none"/>
</svg>
