<svg version="1.1" id="Layer_1" xmlns="http://www.w3.org/2000/svg" xmlns:xlink="http://www.w3.org/1999/xlink" x="0px" y="0px"
	 width="100%" viewBox="0 0 1024 1024" enable-background="new 0 0 1024 1024" xml:space="preserve">
<path fill="#000000" opacity="1.000000" stroke="none" 
	d="
M456.880432,744.392029 
	C457.813477,749.886475 458.637787,754.960815 459.389160,760.045959 
	C460.009338,764.243347 463.076019,765.654602 466.616333,766.606140 
	C480.258575,770.272705 493.904938,773.924377 507.533661,777.640686 
	C511.534302,778.731567 516.468933,779.531250 515.723450,785.157715 
	C514.955200,790.955994 509.729126,790.057007 505.746918,790.084351 
	C479.085602,790.267395 452.423218,790.298462 425.761200,790.375366 
	C424.261627,790.379700 422.760956,790.383850 421.262634,790.333496 
	C418.744476,790.248962 416.573212,789.433960 415.894165,786.755920 
	C415.236389,784.162109 415.723877,781.841614 418.170837,780.174316 
	C422.868896,776.973145 427.775482,774.124268 433.049255,772.038574 
	C437.060303,770.452393 438.073669,767.780334 437.470703,763.762146 
	C433.779938,739.166077 430.195038,714.554138 426.568359,689.948486 
	C424.344971,674.863281 422.147278,659.774170 419.857788,644.699036 
	C419.161804,640.116272 420.569458,636.133484 422.943726,632.403809 
	C428.400208,623.832397 433.943695,615.316528 439.429810,606.763916 
	C440.391602,605.264587 441.246033,603.696411 442.387421,601.756714 
	C436.289337,599.422791 430.331909,599.930420 424.699127,599.605225 
	C405.083069,598.472473 385.770111,595.202087 366.435608,592.154053 
	C346.191711,588.962646 326.014221,586.823853 305.412384,587.732361 
	C283.955353,588.678650 262.430969,588.105225 240.935944,588.170593 
	C237.734406,588.180359 234.220688,588.236084 232.966034,584.512085 
	C231.673035,580.674316 233.666245,577.912537 236.732391,575.568115 
	C265.760193,553.372986 293.131409,529.262817 318.639465,503.120117 
	C342.489655,478.676636 366.052246,453.943634 389.357483,428.979614 
	C419.275146,396.932404 455.067871,374.511047 496.920807,361.658142 
	C505.677704,358.968933 513.404175,354.471466 520.038208,348.209229 
	C529.104797,339.650726 531.214966,328.961212 529.195312,317.065582 
	C527.148132,305.007782 526.210632,292.712524 529.409485,280.921356 
	C536.517334,254.721939 553.863464,237.676254 580.228027,231.967148 
	C618.274231,223.728378 647.655579,247.135681 657.328186,277.846100 
	C658.776062,282.443237 660.927612,286.035217 665.316711,288.721985 
	C702.534180,311.504608 740.554382,332.973450 777.069397,356.904266 
	C778.737854,357.997650 780.310181,359.236938 781.935120,360.397308 
	C785.008057,362.591797 786.577393,365.668243 784.748779,369.026733 
	C782.967834,372.297668 779.334839,372.729370 775.908508,371.944061 
	C773.496582,371.391235 771.214294,370.265961 768.881042,369.377960 
	C737.464417,357.420776 706.037964,345.489380 674.641846,333.478485 
	C667.647339,330.802704 660.740601,327.892914 653.830383,325.002563 
	C647.536804,322.370178 641.502869,322.130890 636.071960,326.873749 
	C630.458130,331.776337 628.948547,338.171997 630.970398,345.036835 
	C634.350952,356.514709 638.429932,367.785156 641.925354,379.231354 
	C648.935730,402.187714 652.271667,425.795227 650.134888,449.641968 
	C645.552979,500.778229 622.369934,541.384827 578.956482,569.695251 
	C562.527832,580.408569 544.800903,588.377502 525.863464,593.539551 
	C521.625732,594.694702 519.188477,596.947144 517.845947,601.314209 
	C511.883209,620.709839 506.221802,640.179688 501.235992,659.853821 
	C500.324677,663.450012 500.826508,666.238220 502.677795,669.226257 
	C513.993042,687.489563 525.272583,705.775330 536.489319,724.099243 
	C543.966187,736.313599 551.886719,748.266479 558.562439,760.957031 
	C560.340820,764.337769 562.957520,766.003418 566.688965,766.786194 
	C584.888245,770.603821 603.033997,774.675964 621.222839,778.544678 
	C625.080994,779.365295 627.966736,780.728333 627.285156,785.353271 
	C626.643311,789.708374 623.328064,790.403625 619.826721,790.252502 
	C597.847961,789.303467 575.857666,789.336304 553.867126,789.306946 
	C549.946838,789.301697 547.536133,787.193604 545.594482,783.885071 
	C533.120544,762.629517 520.600464,741.400085 507.939911,720.255310 
	C498.102478,703.825439 488.108429,687.488037 478.030853,671.204346 
	C475.271545,666.745789 474.902618,662.479492 476.411377,657.453308 
	C481.478119,640.574463 486.204956,623.593445 491.024078,606.640747 
	C492.373383,601.894165 491.566345,600.898926 486.731781,601.013245 
	C486.565338,601.017151 486.394287,601.066040 486.233612,601.041016 
	C475.177307,599.319519 468.379761,604.150024 463.524475,614.061096 
	C459.970337,621.316284 455.051697,628.081970 449.821777,634.291382 
	C443.493652,641.804504 442.798737,649.700745 444.482025,658.910828 
	C447.813843,677.140991 450.165558,695.537903 452.410797,713.941956 
	C453.635468,723.980164 455.283173,733.966736 456.880432,744.392029 
M473.901215,541.316772 
	C498.033936,531.402649 520.179321,518.408264 538.231567,499.241608 
	C554.642944,481.817139 566.574524,461.938416 570.914795,438.031433 
	C571.206177,436.426636 572.064941,434.782227 569.876648,433.787170 
	C567.883179,434.462219 567.973877,436.431549 567.413269,437.858215 
	C552.181274,476.622375 524.617615,503.974518 488.331757,523.164978 
	C449.617279,543.639893 407.652832,553.717957 364.944183,561.349915 
	C356.567932,562.846680 348.212402,564.459412 339.847290,566.018738 
	C339.943970,566.511292 340.040619,567.003906 340.137268,567.496521 
	C386.065277,567.255859 430.409515,558.584534 473.901215,541.316772 
M610.982849,293.465027 
	C611.715820,292.356262 612.581787,291.312256 613.158691,290.127502 
	C615.655090,285.000977 614.138000,279.273071 609.379028,275.522491 
	C604.721558,271.851898 598.788940,271.863159 594.269897,275.551239 
	C589.771790,279.222229 588.331116,285.353058 590.797852,290.326843 
	C594.623962,298.041931 602.787354,299.560547 610.982849,293.465027 
z"/>
</svg>